<?xml version="1.0" encoding="iso-8859-1"?>
<!-- Uploaded to: SVG Repo, www.svgrepo.com, Generator: SVG Repo Mixer Tools -->
<svg version="1.1" id="Layer_1" xmlns="http://www.w3.org/2000/svg" xmlns:xlink="http://www.w3.org/1999/xlink" 
	 viewBox="0 0 512 512" xml:space="preserve">
<rect x="203.034" y="357.517" style="fill:#AFB9D2;" width="105.931" height="88.276"/>
<rect x="203.034" y="357.517" style="fill:#959CB5;" width="105.931" height="35.31"/>
<g>
	<path style="fill:#C7CFE2;" d="M494.345,57.379H17.655C7.923,57.379,0,65.298,0,75.034v282.483c0,9.737,7.923,17.655,17.655,17.655
		h476.69c9.732,0,17.655-7.918,17.655-17.655V75.034C512,65.298,504.077,57.379,494.345,57.379z"/>
	<path style="fill:#C7CFE2;" d="M344.276,454.621H167.724c-4.879,0-8.828-3.953-8.828-8.828s3.948-8.828,8.828-8.828h176.552
		c4.879,0,8.828,3.953,8.828,8.828S349.155,454.621,344.276,454.621z"/>
</g>
<path style="fill:#FFFFFF;" d="M26.483,75.034h459.034c4.875,0,8.828,4.088,8.828,9.132l0.008,246.563
	c0,5.044-3.953,9.132-8.828,9.132l-459.042-0.001c-4.875,0-8.828-4.088-8.828-9.132V84.167
	C17.655,79.123,21.608,75.034,26.483,75.034z"/>
<path style="fill:#AFB9D2;" d="M291.31,269.241h-17.655c-4.879,0-8.828-3.953-8.828-8.828s3.948-8.828,8.828-8.828h17.655
	c4.879,0,8.828,3.953,8.828,8.828S296.19,269.241,291.31,269.241z"/>
<g>
	<path style="fill:#D5DCED;" d="M406.069,269.241h-79.448c-4.879,0-8.828-3.953-8.828-8.828s3.948-8.828,8.828-8.828h79.448
		c4.879,0,8.828,3.953,8.828,8.828S410.948,269.241,406.069,269.241z"/>
	<path style="fill:#D5DCED;" d="M432.552,304.552H326.621c-4.879,0-8.828-3.953-8.828-8.828c0-4.875,3.948-8.828,8.828-8.828
		h105.931c4.879,0,8.828,3.953,8.828,8.828C441.379,300.599,437.431,304.552,432.552,304.552z"/>
</g>
<path style="fill:#AFB9D2;" d="M291.31,304.552h-17.655c-4.879,0-8.828-3.953-8.828-8.828c0-4.875,3.948-8.828,8.828-8.828h17.655
	c4.879,0,8.828,3.953,8.828,8.828C300.138,300.599,296.19,304.552,291.31,304.552z"/>
<path style="fill:#FFDC64;" d="M141.241,110.345c-53.629,0-97.103,43.475-97.103,97.103s43.475,97.103,97.103,97.103
	s97.103-43.475,97.103-97.103S194.87,110.345,141.241,110.345z M141.241,251.586c-24.376,0-44.138-19.762-44.138-44.138
	s19.762-44.138,44.138-44.138s44.138,19.762,44.138,44.138S165.618,251.586,141.241,251.586z"/>
<path style="fill:#FF5050;" d="M141.241,163.31c12.189,0,23.222,4.941,31.21,12.928l37.452-37.452
	c-17.571-17.572-41.847-28.441-68.662-28.441c-53.629,0-97.103,43.475-97.103,97.103h52.966
	C97.103,183.072,116.865,163.31,141.241,163.31z"/>
<path style="fill:#FFC850;" d="M102.83,228.788c-3.538-6.35-5.727-13.555-5.727-21.34H44.138c0,17.119,4.466,33.178,12.242,47.145
	L102.83,228.788z"/>
<g>
	<path style="fill:#7DF5A5;" d="M185.379,207.448c0,24.376-19.762,44.138-44.138,44.138v52.966
		c53.629,0,97.103-43.475,97.103-97.103c0-26.815-10.869-51.091-28.44-68.663l-37.452,37.452
		C180.438,184.226,185.379,195.26,185.379,207.448z"/>
	<path style="fill:#7DF5A5;" d="M308.966,110.345c-4.875,0-8.828,3.953-8.828,8.828v97.103h17.655v-97.103
		C317.793,114.297,313.841,110.345,308.966,110.345z"/>
	<path style="fill:#7DF5A5;" d="M450.207,110.345c-4.875,0-8.828,3.953-8.828,8.828v97.103h17.655v-97.103
		C459.034,114.297,455.082,110.345,450.207,110.345z"/>
</g>
<g>
	<path style="fill:#00C3FF;" d="M379.586,128c-4.875,0-8.828,3.953-8.828,8.828v79.448h17.655v-79.448
		C388.414,131.953,384.461,128,379.586,128z"/>
	<path style="fill:#00C3FF;" d="M273.655,128c-4.875,0-8.828,3.953-8.828,8.828v79.448h17.655v-79.448
		C282.483,131.953,278.53,128,273.655,128z"/>
</g>
<g>
	<path style="fill:#FFF082;" d="M344.276,154.483c-4.875,0-8.828,3.953-8.828,8.828v52.966h17.655V163.31
		C353.103,158.435,349.151,154.483,344.276,154.483z"/>
	<path style="fill:#FFF082;" d="M414.897,154.483c-4.875,0-8.828,3.953-8.828,8.828v52.966h17.655V163.31
		C423.724,158.435,419.772,154.483,414.897,154.483z"/>
</g>
<path style="fill:#C7CFE2;" d="M459.034,225.103H264.828c-4.879,0-8.828-3.953-8.828-8.828s3.948-8.828,8.828-8.828h194.207
	c4.879,0,8.828,3.953,8.828,8.828S463.914,225.103,459.034,225.103z"/>
</svg>