<?xml version="1.0" encoding="iso-8859-1"?>
<!-- Uploaded to: SVG Repo, www.svgrepo.com, Generator: SVG Repo Mixer Tools -->
<svg version="1.1" id="Layer_1" xmlns="http://www.w3.org/2000/svg" xmlns:xlink="http://www.w3.org/1999/xlink" 
	 viewBox="0 0 512 512" xml:space="preserve">
<polygon style="fill:#E21B1B;" points="0,470.664 512,470.664 448,329.336 64,329.336 "/>
<rect x="69.994" y="47.328" style="fill:#6B6B6B;" width="372.006" height="243.999"/>
<path style="fill:#333333;" d="M436.001,53.336v231.999H76V53.336H436.001 M448,41.336H64v256.001h384.001V41.336H448z"/>
<g style="opacity:0.2;">
	<polygon style="fill:#FFFFFF;" points="76.016,125.735 76.016,53.352 148.401,53.352 	"/>
</g>
<g>
	<circle style="fill:#FFFFFF;" cx="172.507" cy="133.649" r="28.531"/>
	<path style="fill:#FFFFFF;" d="M171.2,228.112L144,168.52c0,0-28.528,0.632-28.528,26.624v32.968H171.2z"/>
	<path style="fill:#FFFFFF;" d="M173.768,228.112l27.264-59.592c0,0,28.528,0.632,28.528,26.624v32.968H173.768z"/>
</g>
<polygon style="fill:#E21B1B;" points="155.056,171.287 172.504,210.12 189.945,171.287 "/>
<g>
	<circle style="fill:#FFFFFF;" cx="339.509" cy="133.649" r="28.531"/>
	<path style="fill:#FFFFFF;" d="M338.232,228.112l-27.264-59.592c0,0-28.528,0.632-28.528,26.624v32.968H338.232z"/>
	<path style="fill:#FFFFFF;" d="M340.801,228.112l27.2-59.592c0,0,28.528,0.632,28.528,26.624v32.968H340.801z"/>
</g>
<polygon style="fill:#E21B1B;" points="322.056,171.287 339.504,210.12 356.944,171.287 "/>
</svg>