<svg viewBox="0 0 400 300" xmlns="http://www.w3.org/2000/svg"><path d="m132.82 229.67 5-37.23-2.16-62.25s-39.35 20.72-42.11 35.19c-3.08 16.13-5.18 49.47-6 64.29z" fill="#ffc9b0"/><path d="m132.82 230.67h-45.23a1 1 0 0 1 -.73-.31 1 1 0 0 1 -.27-.75c.77-13.93 2.89-48.09 6-64.41 2.82-14.78 41-35 42.63-35.89a1 1 0 0 1 1.46.85l2.16 62.24a1 1 0 0 1 0 .17l-5 37.23a1 1 0 0 1 -1.02.87zm-44.18-2h43.3l4.91-36.28-2.1-60.55c-7 3.85-37.83 21.41-40.19 33.73-3.02 15.81-5.1 48.61-5.92 63.1z" fill="#093f68"/><rect fill="#68e1fd" height="146.3" rx="15.34" width="183.64" x="123.89" y="70.33"/><path d="m292.19 217.64h-153a16.36 16.36 0 0 1 -16.34-16.35v-115.62a16.36 16.36 0 0 1 16.34-16.34h153a16.36 16.36 0 0 1 16.34 16.34v115.62a16.36 16.36 0 0 1 -16.34 16.35zm-153-146.31a14.35 14.35 0 0 0 -14.34 14.34v115.62a14.36 14.36 0 0 0 14.34 14.35h153a14.36 14.36 0 0 0 14.34-14.35v-115.62a14.35 14.35 0 0 0 -14.34-14.34z" fill="#093f68"/><path d="m135.91 85.41h159.59v116.15h-159.59z" fill="#fff"/><path d="m295.51 202.56h-159.59a1 1 0 0 1 -1-1v-116.15a1 1 0 0 1 1-1h159.59a1 1 0 0 1 1 1v116.15a1 1 0 0 1 -1 1zm-158.59-2h157.59v-114.15h-157.59z" fill="#093f68"/><path d="m150.02 176.19h17.46v11.78h-17.46z" fill="#f56132"/><path d="m167.47 189h-17.47a1 1 0 0 1 -1-1v-11.81a1 1 0 0 1 1-1h17.45a1 1 0 0 1 1 1v11.81a1 1 0 0 1 -.98 1zm-16.47-2h15.45v-9.77h-15.45z" fill="#093f68"/><path d="m178.5 170.51h17.46v17.46h-17.46z" fill="#f56132"/><path d="m196 189h-17.5a1 1 0 0 1 -1-1v-17.49a1 1 0 0 1 1-1h17.5a1 1 0 0 1 1 1v17.49a1 1 0 0 1 -1 1zm-16.46-2h15.46v-15.49h-15.5z" fill="#093f68"/><path d="m206.98 154h17.46v33.97h-17.46z" fill="#ffbc0e"/><path d="m224.44 189h-17.44a1 1 0 0 1 -1-1v-34a1 1 0 0 1 1-1h17.46a1 1 0 0 1 1 1v34a1 1 0 0 1 -1.02 1zm-16.44-2h15.46v-32h-15.46z" fill="#093f68"/><path d="m235.46 133.19h17.46v54.77h-17.46z" fill="#70cc40"/><path d="m252.92 189h-17.46a1 1 0 0 1 -1-1v-54.81a1 1 0 0 1 1-1h17.46a1 1 0 0 1 1 1v54.81a1 1 0 0 1 -1 1zm-16.46-2h15.46v-52.81h-15.46z" fill="#093f68"/><path d="m263.95 107.45h17.46v80.52h-17.46z" fill="#70cc40"/><path d="m281.4 189h-17.4a1 1 0 0 1 -1-1v-80.55a1 1 0 0 1 1-1h17.4a1 1 0 0 1 1 1v80.55a1 1 0 0 1 -1 1zm-16.4-2h15.4v-78.55h-15.4z" fill="#093f68"/><path d="m289.71 189h-147.28a1 1 0 0 1 0-2h147.28a1 1 0 0 1 0 2z" fill="#093f68"/><path d="m244.19 147.33a14.14 14.14 0 1 1 14.14-14.14 14.16 14.16 0 0 1 -14.14 14.14zm0-26.28a12.14 12.14 0 1 0 12.14 12.14 12.16 12.16 0 0 0 -12.14-12.14z" fill="#093f68"/><path d="m262.37 217.91 2.86 11.76h47.18c-3.44-7.74-8.73-19.46-9.81-21-1.64-2.38-1-33.52-7.07-44.11-3.27-5.37-9.33-7.19-15.33-6.65-1.8.16-18 4.17-18.47 2.19q-2.52-10.14-6-20a27.29 27.29 0 0 0 -4.23-8.54c-1.87-2.28-5.19-4-7.72-2.47s-2.53 5.22-2.19 8.2c2 17.37 7.25 34.53 13 51 0 0-8.71-5.63-13-7.14s-8 2.6-5.14 11.41 25.92 25.35 25.92 25.35z" fill="#ffc9b0"/><path d="m312.41 230.67h-47.18a1 1 0 0 1 -1-.77l-2.76-11.39c-2.85-2.08-23.13-17.14-26-25.7-1.7-5.16-1.37-9.4.89-11.62a5.16 5.16 0 0 1 5.53-1c3 1 7.88 3.92 10.82 5.72-5-14.45-10.15-31.27-12.14-48.52-.35-3-.46-7.28 2.66-9.18s6.79 0 9 2.7 3.29 5.65 4.4 8.84c2.27 6.49 4.26 13.16 5.92 19.83 1.79.52 10.58-1.3 14-2 2-.41 3.05-.63 3.53-.67 7.18-.64 13.11 2 16.26 7.13 4.11 7.17 5.23 23.25 6 33.89.32 4.64.65 9.43 1.08 10.18.86 1.26 4.2 8.39 9.9 21.19a1 1 0 0 1 -.08 1 1 1 0 0 1 -.83.37zm-46.4-2h44.86c-5.06-11.33-8.36-18.4-9.1-19.47s-.93-4.15-1.42-11.17c-.72-10.46-1.82-26.26-5.69-33-2.72-4.47-8-6.73-14.37-6.16-.38 0-1.73.32-3.29.64-12.42 2.57-15.76 2.74-16.24.8-1.66-6.71-3.66-13.41-5.93-19.93a26.6 26.6 0 0 0 -4.06-8.23c-1.64-2-4.44-3.46-6.43-2.26-1.63 1-2.17 3.29-1.72 7.24 2.1 18.14 7.74 35.85 13 50.78a1 1 0 0 1 -1.49 1.17c-.08 0-8.65-5.58-12.81-7a3.22 3.22 0 0 0 -3.47.59c-1.67 1.64-1.82 5.22-.39 9.57 2.77 8.4 25.29 24.75 25.52 24.91a1 1 0 0 1 .38.58z" fill="#093f68"/><path d="m93.41 188.91s-.25-20.86 23.65-35.89c20.5-12.88 21.53-5.33 20.45-.16-1.33 6.37-16.4 18.33-16.4 18.33s9.44 9.71-2.33 25" fill="#ffc9b0"/><path d="m118.78 197.23a1 1 0 0 1 -.6-.21 1 1 0 0 1 -.19-1.4c11.11-14.48 2.49-23.64 2.4-23.73a1 1 0 0 1 .1-1.48c4.11-3.27 15-12.82 16-17.76.32-1.51.63-4.19-.86-5.22s-5.58-1.42-18.08 6.44c-12.08 7.59-17.73 16.71-20.35 23a34.19 34.19 0 0 0 -2.83 12 1 1 0 0 1 -1 1 1 1 0 0 1 -1-1c0-.88 0-21.61 24.12-36.75 10.42-6.55 17.05-8.65 20.29-6.4 1.82 1.27 2.4 3.79 1.67 7.28-1.23 5.86-12.81 15.68-16 18.28 2 2.79 7.24 12.24-2.93 25.5a1 1 0 0 1 -.74.45z" fill="#093f68"/><path d="m237.77 129.45a1 1 0 0 1 -.73-.32l-19.45-20.68h-14.92a1 1 0 0 1 0-2h15.33a1 1 0 0 1 .73.31l19.75 21a1 1 0 0 1 0 1.42 1 1 0 0 1 -.71.27z" fill="#093f68"/><g fill="#dfeaef"><path d="m194.54 108.45h-17.46a1 1 0 0 1 0-2h17.46a1 1 0 0 1 0 2z"/><path d="m194.54 119h-12.11a1 1 0 0 1 0-2h12.11a1 1 0 0 1 0 2z"/><path d="m177.08 131.77h-22a1 1 0 0 1 0-2h22a1 1 0 0 1 0 2z"/><path d="m192.62 131.77h-10.19a1 1 0 0 1 0-2h10.19a1 1 0 0 1 0 2z"/><path d="m184.87 144.48h-29.75a1 1 0 0 1 0-2h29.75a1 1 0 0 1 0 2z"/><path d="m163.08 123.16a9.82 9.82 0 1 1 9.82-9.82 9.83 9.83 0 0 1 -9.82 9.82zm0-17.63a7.82 7.82 0 1 0 7.82 7.81 7.82 7.82 0 0 0 -7.82-7.81z"/><path d="m163.08 123.16a9.82 9.82 0 1 1 5.83-17.71 1 1 0 0 1 .4.65 1 1 0 0 1 -.19.74l-4.06 5.5h6.84a1 1 0 0 1 1 1 9.82 9.82 0 0 1 -9.82 9.82zm0-17.63a7.82 7.82 0 1 0 7.76 8.81h-7.76a1 1 0 0 1 -.89-.55 1 1 0 0 1 .09-1l4.6-6.24a7.88 7.88 0 0 0 -3.8-1.02z"/></g><path d="m235.46 94.05h45.94v3.75h-45.94z" fill="#68e1fd"/><path d="m281.4 98.81h-45.94a1 1 0 0 1 -1-1v-3.76a1 1 0 0 1 1-1h45.94a1 1 0 0 1 1 1v3.76a1 1 0 0 1 -1 1zm-44.94-2h43.94v-1.76h-43.94z" fill="#093f68"/></svg>