<?xml version="1.0" encoding="iso-8859-1"?>
<!-- Uploaded to: SVG Repo, www.svgrepo.com, Generator: SVG Repo Mixer Tools -->
<svg height="800px" width="800px" version="1.1" id="Layer_1" xmlns="http://www.w3.org/2000/svg" xmlns:xlink="http://www.w3.org/1999/xlink" 
	 viewBox="0 0 512 512" xml:space="preserve">
<g>
	<path style="fill:#7383BF;" d="M88.276,211.862c-2.648,0-4.414-0.883-6.179-2.648c-3.531-3.531-2.648-8.828,0.883-12.359
		L197.738,90.924c3.531-3.531,8.828-2.648,12.359,0.883c3.531,3.531,2.648,8.828-0.883,12.359L94.455,210.097
		C92.69,210.979,90.041,211.862,88.276,211.862"/>
	<path style="fill:#7383BF;" d="M423.724,211.862c-1.766,0-4.414-0.883-6.179-2.648L302.786,103.283
		c-3.531-3.531-3.531-8.828-0.883-12.359c3.531-3.531,8.828-3.531,12.359-0.883l114.759,105.931
		c3.531,3.531,3.531,8.828,0.883,12.359C428.138,210.979,426.372,211.862,423.724,211.862"/>
	<path style="fill:#7383BF;" d="M308.966,423.724c-2.648,0-4.414-0.883-6.179-2.648c-3.531-3.531-2.648-8.828,0.883-12.359
		l114.759-105.931c3.531-3.531,8.828-2.648,12.359,0.883c3.531,3.531,2.648,8.828-0.883,12.359L315.145,421.959
		C313.379,422.841,310.731,423.724,308.966,423.724"/>
	<path style="fill:#7383BF;" d="M203.034,423.724c-1.766,0-4.414-0.883-6.179-2.648L82.097,315.145
		c-3.531-3.531-3.531-8.828-0.883-12.359c3.531-3.531,8.828-3.531,12.359-0.883l114.759,105.931
		c3.531,3.531,3.531,8.828,0.883,12.359C207.448,422.841,205.683,423.724,203.034,423.724"/>
</g>
<g>
	<path style="fill:#ECBA16;" d="M317.793,61.793c0,34.428-27.365,61.793-61.793,61.793s-61.793-27.366-61.793-61.793
		S221.572,0,256,0S317.793,27.366,317.793,61.793"/>
	<path style="fill:#ECBA16;" d="M317.793,450.207C317.793,484.634,290.428,512,256,512s-61.793-27.366-61.793-61.793
		s27.366-61.793,61.793-61.793S317.793,415.779,317.793,450.207"/>
</g>
<g>
	<path style="fill:#42B05C;" d="M123.586,256c0,34.428-27.366,61.793-61.793,61.793S0,290.428,0,256s27.366-61.793,61.793-61.793
		S123.586,221.572,123.586,256"/>
	<path style="fill:#42B05C;" d="M512,256c0,34.428-27.366,61.793-61.793,61.793S388.414,290.428,388.414,256
		s27.366-61.793,61.793-61.793S512,221.572,512,256"/>
</g>
</svg>