<!DOCTYPE svg PUBLIC "-//W3C//DTD SVG 1.1//EN" "http://www.w3.org/Graphics/SVG/1.1/DTD/svg11.dtd">
<!-- Uploaded to: SVG Repo, www.svgrepo.com, Transformed by: SVG Repo Mixer Tools -->
<svg width="800px" height="800px" viewBox="-6.4 -6.4 44.80 44.80" id="svg5" version="1.1" xmlns="http://www.w3.org/2000/svg" xmlns:svg="http://www.w3.org/2000/svg" fill="#137000">
<g id="SVGRepo_bgCarrier" stroke-width="0">
<rect x="-6.4" y="-6.4" width="44.80" height="44.80" rx="22.4" fill="#99d095" strokewidth="0"/>
</g>
<g id="SVGRepo_tracerCarrier" stroke-linecap="round" stroke-linejoin="round"/>
<g id="SVGRepo_iconCarrier"> <defs id="defs2"/> <g id="layer1" transform="translate(-300,-148)"> <path d="m 305,150.00586 c -1.6447,0 -3,1.3553 -3,3 v 22 c 0,1.6447 1.3553,3 3,3 h 22 c 1.6447,0 3,-1.3553 3,-3 v -22 c 0,-1.6447 -1.3553,-3 -3,-3 z m 0,2 h 22 c 0.5713,0 1,0.4287 1,1 v 22 c 0,0.5713 -0.4287,1 -1,1 h -22 c -0.5713,0 -1,-0.4287 -1,-1 v -22 c 0,-0.5713 0.4287,-1 1,-1 z" id="rect15117" style="color:#137000;fill:#137000;fill-rule:evenodd;stroke-linecap:round;stroke-linejoin:round;stroke-miterlimit:4.1;-inkscape-stroke:none"/> <path d="m 308,154.00586 c -1.0907,0 -2,0.9093 -2,2 v 3 c 0,1.0907 0.9093,2 2,2 h 16 c 1.0907,0 2,-0.9093 2,-2 v -3 c 0,-1.0907 -0.9093,-2 -2,-2 z m 0,2 h 16 v 3 h -16 z" id="rect15119" style="color:#137000;fill:#137000;fill-rule:evenodd;stroke-linecap:round;stroke-linejoin:round;stroke-miterlimit:4.1;-inkscape-stroke:none"/> <path d="m 315,162.00586 c -1.0907,0 -2,0.9093 -2,2 v 2 c 0,1.0907 0.9093,2 2,2 h 2 c 1.0907,0 2,-0.9093 2,-2 v -2 c 0,-1.0907 -0.9093,-2 -2,-2 z m 0,2 h 2 v 2 h -2 z" id="rect15123" style="color:#137000;fill:#137000;fill-rule:evenodd;stroke-linecap:round;stroke-linejoin:round;stroke-miterlimit:4.1;-inkscape-stroke:none"/> <path d="m 322,162.00586 c -1.0907,0 -2,0.9093 -2,2 v 9 c 0,1.0907 0.9093,2 2,2 h 2 c 1.0907,0 2,-0.9093 2,-2 v -9 c 0,-1.0907 -0.9093,-2 -2,-2 z m 0,2 h 2 v 9 h -2 z" id="rect15129" style="color:#137000;fill:#137000;fill-rule:evenodd;stroke-linecap:round;stroke-linejoin:round;stroke-miterlimit:4.1;-inkscape-stroke:none"/> <path d="m 308,162.00586 c -1.0907,0 -2,0.9093 -2,2 v 2 c 0,1.0907 0.9093,2 2,2 h 2 c 1.0907,0 2,-0.9093 2,-2 v -2 c 0,-1.0907 -0.9093,-2 -2,-2 z m 0,2 h 2 v 2 h -2 z" id="rect19620" style="color:#137000;fill:#137000;fill-rule:evenodd;stroke-linecap:round;stroke-linejoin:round;stroke-miterlimit:4.1;-inkscape-stroke:none"/> <path d="m 315,169.00586 c -1.0907,0 -2,0.9093 -2,2 v 2 c 0,1.0907 0.9093,2 2,2 h 2 c 1.0907,0 2,-0.9093 2,-2 v -2 c 0,-1.0907 -0.9093,-2 -2,-2 z m 0,2 h 2 v 2 h -2 z" id="rect19622" style="color:#137000;fill:#137000;fill-rule:evenodd;stroke-linecap:round;stroke-linejoin:round;stroke-miterlimit:4.1;-inkscape-stroke:none"/> <path d="m 308,169.00586 c -1.0907,0 -2,0.9093 -2,2 v 2 c 0,1.0907 0.9093,2 2,2 h 2 c 1.0907,0 2,-0.9093 2,-2 v -2 c 0,-1.0907 -0.9093,-2 -2,-2 z m 0,2 h 2 v 2 h -2 z" id="rect19624" style="color:#137000;fill:#137000;fill-rule:evenodd;stroke-linecap:round;stroke-linejoin:round;stroke-miterlimit:4.1;-inkscape-stroke:none"/> </g> </g>
</svg>