<?xml version="1.0" encoding="iso-8859-1"?>
<!-- Uploaded to: SVG Repo, www.svgrepo.com, Generator: SVG Repo Mixer Tools -->
<svg height="800px" width="800px" version="1.1" id="Layer_1" xmlns="http://www.w3.org/2000/svg" xmlns:xlink="http://www.w3.org/1999/xlink" 
	 viewBox="0 0 512 512" xml:space="preserve">
<circle style="fill:#366796;" cx="256" cy="256" r="256"/>
<path style="fill:#273B7A;" d="M508.625,297.548L301.196,90.119h-66.457l-31.604,33.14l-52.172,313.568l73.204,73.204
	c10.43,1.293,21.052,1.969,31.832,1.969C383.235,512,488.772,419.171,508.625,297.548z"/>
<path style="fill:#FEE187;" d="M354.023,285.415c0,0-24.321-108.001-28.243-144.632c-4.025-37.628-31.765-68.379-69.78-68.379
	s-65.755,30.751-69.782,68.377c-3.92,36.631-28.243,144.632-28.243,144.632c-1.369,7.008,3.203,13.8,10.212,15.169
	c0.836,0.164,1.67,0.241,2.491,0.241c6.061,0,11.471-4.28,12.678-10.452l19.99-102.374c12.81,14.714,31.656,24.043,52.653,24.043
	s39.843-9.33,52.653-24.045l19.99,102.374c1.205,6.172,6.616,10.452,12.678,10.452c0.822,0,1.655-0.078,2.491-0.241
	C350.82,299.213,355.392,292.423,354.023,285.415z M256,186.182c-24.24,0-43.96-19.72-43.96-43.96s19.72-43.96,43.96-43.96
	s43.96,19.72,43.96,43.96S280.238,186.182,256,186.182z"/>
<path style="fill:#FFC61B;" d="M354.023,285.415c0,0-24.321-108.001-28.243-144.632c-4.025-37.628-31.765-68.379-69.78-68.379
	c-0.193,0-0.381,0.014-0.574,0.014v25.859c0.191-0.002,0.381-0.014,0.574-0.014c24.238,0,43.96,19.72,43.96,43.96
	s-19.721,43.96-43.96,43.96c-0.193,0-0.383-0.012-0.574-0.016v25.857c0.193,0.002,0.381,0.016,0.574,0.016
	c20.997,0,39.843-9.33,52.653-24.045l19.99,102.374c1.205,6.172,6.616,10.452,12.678,10.452c0.822,0,1.655-0.078,2.491-0.241
	C350.82,299.213,355.392,292.423,354.023,285.415z"/>
<path style="fill:#FF7F4F;" d="M170.667,444.768L170.667,444.768c-15.71,0-28.444-12.734-28.444-28.444V274.101h56.889v142.222
	C199.111,432.033,186.377,444.768,170.667,444.768z"/>
<path style="fill:#FF5419;" d="M341.333,444.768L341.333,444.768c-15.71,0-28.444-12.734-28.444-28.444V274.101h56.889v142.222
	C369.778,432.033,357.043,444.768,341.333,444.768z"/>
</svg>