<?xml version="1.0" ?><!-- Uploaded to: SVG Repo, www.svgrepo.com, Generator: SVG Repo Mixer Tools -->
<svg width="800px" height="800px" viewBox="0 0 50 50" data-name="Layer 1" id="Layer_1" xmlns="http://www.w3.org/2000/svg"><defs><style>.cls-1{fill:#231f20;}.cls-2{fill:#ffba50;}.cls-3{fill:#ff8e5a;}.cls-4{fill:#d12200;}</style></defs><title/><path class="cls-1" d="M9.129,28.921a3.3,3.3,0,1,0-3.3-3.3A3.309,3.309,0,0,0,9.129,28.921Z"/><path class="cls-2" d="M9.129,23.314a2.3,2.3,0,1,1-2.3,2.3A2.306,2.306,0,0,1,9.129,23.314Z"/><path class="cls-1" d="M9.129,29.757A4.635,4.635,0,0,0,4.5,34.386v2.279a2.821,2.821,0,0,0,1.7,2.6v3.731a2.5,2.5,0,0,0,2.5,2.5h.872a2.5,2.5,0,0,0,2.5-2.5V39.261a2.822,2.822,0,0,0,1.694-2.6V34.386A4.635,4.635,0,0,0,9.129,29.757Z"/><path class="cls-2" d="M12.76,36.665a1.836,1.836,0,0,1-1.335,1.768.5.5,0,0,0-.359.48v4.079a1.5,1.5,0,0,1-1.5,1.5H8.694a1.5,1.5,0,0,1-1.5-1.5V38.913a.5.5,0,0,0-.36-.48A1.836,1.836,0,0,1,5.5,36.665V34.386a3.631,3.631,0,0,1,7.261,0Z"/><rect class="cls-1" height="28.114" rx="2.5" width="9.26" x="17.568" y="17.378"/><rect class="cls-3" height="26.114" rx="1.5" width="7.26" x="18.568" y="18.378"/><path class="cls-1" d="M45.2,11.812l-6.5-6.971a1.132,1.132,0,0,0-1.6,0l-6.5,6.971a1.1,1.1,0,0,0,.8,1.843h1.869V42.992a2.5,2.5,0,0,0,2.5,2.5h4.259a2.5,2.5,0,0,0,2.5-2.5V13.655H44.4a1.1,1.1,0,0,0,.8-1.843Z"/><path class="cls-4" d="M44.49,12.6a.089.089,0,0,1-.088.058H42.033a.5.5,0,0,0-.5.5V42.992a1.5,1.5,0,0,1-1.5,1.5H35.774a1.5,1.5,0,0,1-1.5-1.5V13.155a.5.5,0,0,0-.5-.5H31.405a.087.087,0,0,1-.088-.058.085.085,0,0,1,.017-.1l6.5-6.972h.14l6.5,6.972h0A.089.089,0,0,1,44.49,12.6Z"/></svg>