<?xml version="1.0" encoding="iso-8859-1"?>
<!-- Uploaded to: SVG Repo, www.svgrepo.com, Generator: SVG Repo Mixer Tools -->
<svg height="800px" width="800px" version="1.1" id="Layer_1" xmlns="http://www.w3.org/2000/svg" xmlns:xlink="http://www.w3.org/1999/xlink" 
	 viewBox="0 0 512.001 512.001" xml:space="preserve">
<path style="fill:#CAD1D8;" d="M24,16h464c13.254,0,24,10.745,24,24v432c0,13.254-10.745,24-24,24H24C10.745,496,0,485.255,0,472V40
	C0,26.745,10.745,16,24,16z"/>
<path style="fill:#FFFFFF;" d="M24,80h464c4.418,0,8,3.582,8,8v384c0,4.418-3.582,8-8,8H24c-4.418,0-8-3.582-8-8V88
	C16,83.582,19.582,80,24,80z"/>
<g>
	<circle style="fill:#9BA7AF;" cx="24.002" cy="47.995" r="7.998"/>
	<circle style="fill:#9BA7AF;" cx="56.002" cy="47.995" r="7.998"/>
	<circle style="fill:#9BA7AF;" cx="88.002" cy="47.995" r="7.998"/>
</g>
<g>
	<path style="fill:#595A66;" d="M104,112L104,112c0,4.418-3.582,8-8,8H56c-4.418,0-8-3.582-8-8l0,0c0-4.418,3.582-8.001,8-8.001h40
		C100.418,104,104,107.582,104,112z"/>
	<path style="fill:#595A66;" d="M464,112L464,112c0,4.418-3.582,8-8,8h-32c-4.418,0-8-3.582-8-8l0,0c0-4.418,3.582-8.001,8-8.001h32
		C460.418,104,464,107.582,464,112z"/>
	<path style="fill:#595A66;" d="M400,112L400,112c0,4.418-3.582,8-8,8h-32c-4.418,0-8-3.582-8-8l0,0c0-4.418,3.582-8.001,8-8.001h32
		C396.418,104,400,107.582,400,112z"/>
	<path style="fill:#595A66;" d="M336,112L336,112c0,4.418-3.582,8-8,8h-32c-4.418,0-8-3.582-8-8l0,0c0-4.418,3.582-8.001,8-8.001h32
		C332.418,104,336,107.582,336,112z"/>
</g>
<path style="fill:#E2E5E7;" d="M120,40h368c4.418,0,8,3.582,8,8l0,0c0,4.418-3.582,8-8,8H120c-4.418,0-8-3.582-8-8l0,0
	C112,43.582,115.582,40,120,40z"/>
<g>
	<path style="fill:#CAD1D8;" d="M296,200.001h128c4.418,0,8,3.582,8,8l0,0c0,4.418-3.582,8.001-8,8.001H296
		c-4.418,0-8-3.582-8-8.001l0,0C288,203.582,291.582,200.001,296,200.001z"/>
	<path style="fill:#CAD1D8;" d="M296,232.001h112c4.418,0,8,3.582,8,8l0,0c0,4.418-3.582,8.001-8,8.001H296
		c-4.418,0-8-3.582-8-8.001l0,0C288,235.582,291.582,232.001,296,232.001z"/>
	<path style="fill:#CAD1D8;" d="M296,264h88c4.418,0,8,3.582,8,8l0,0c0,4.418-3.582,8-8,8h-88c-4.418,0-8-3.582-8-8l0,0
		C288,267.582,291.582,264,296,264z"/>
</g>
<path style="fill:#ABE1FA;" d="M56,168.001h176c4.418,0,8,3.582,8,8v128c0,4.418-3.582,8-8,8H56c-4.418,0-8-3.582-8-8v-128
	C48,171.582,51.582,168.001,56,168.001z"/>
<circle style="fill:#F19F35;" cx="88.002" cy="199.998" r="15.995"/>
<path style="fill:#595A66;" d="M240,296l-58.32-58.32c-3.121-3.102-8.159-3.102-11.28,0L96,312h136.001c4.418,0,8-3.582,8-8L240,296
	L240,296z"/>
<path style="fill:#35363E;" d="M208,272L208,272c-2.197,2.215-2.197,5.786,0,8l4.72,4.72c7.223,7.242,11.279,17.052,11.28,27.28
	h8.001c4.418,0,8-3.582,8-8v-8l-24-24C213.786,269.803,210.215,269.803,208,272z"/>
<path style="fill:#595A66;" d="M56,312h96l-50-57.12c-2.897-3.336-7.95-3.691-11.286-0.794c-0.283,0.246-0.549,0.511-0.794,0.794
	L48.001,296v8C48,308.418,51.582,312,56,312z"/>
<path style="fill:#35363E;" d="M145.68,286.48c-4.819-5.448-12.708-6.961-19.2-3.68l25.52,29.2h16L145.68,286.48z"/>
<g>
	<path style="fill:#6F707E;" d="M170.157,249.213L170.157,249.213c1.562,1.562,1.562,4.095,0,5.657l-11.314,11.314
		c-1.562,1.562-4.095,1.562-5.657,0l0,0c-1.562-1.562-1.562-4.095,0-5.657l11.314-11.314
		C166.062,247.651,168.595,247.651,170.157,249.213z"/>
	<path style="fill:#6F707E;" d="M94.811,261.823L94.811,261.823c1.562,1.562,1.562,4.095,0,5.657l-11.314,11.314
		c-1.562,1.562-4.095,1.562-5.657,0l0,0c-1.562-1.562-1.562-4.095,0-5.657l11.314-11.314
		C90.716,260.262,93.249,260.262,94.811,261.823z"/>
</g>
<path style="fill:#E2E5E7;" d="M200.001,368h112c13.254,0,24,10.745,24,24l0,0c0,13.254-10.745,24-24,24h-112
	c-13.254,0-24.001-10.745-24.001-24l0,0C176,378.745,186.745,368,200.001,368z"/>
<path style="fill:#3CB54A;" d="M200.001,360h112c13.254,0,24,10.745,24,24l0,0c0,13.254-10.745,24-24,24h-112
	c-13.254,0-24.001-10.745-24.001-24l0,0C176,370.746,186.745,360,200.001,360z"/>
<g>
	<circle style="fill:#0E9347;" cx="256" cy="384" r="7.998"/>
	<circle style="fill:#0E9347;" cx="288" cy="384" r="7.998"/>
	<circle style="fill:#0E9347;" cx="224" cy="384" r="7.998"/>
</g>
</svg>